<?xml version="1.0" standalone="no"?>
<!DOCTYPE svg PUBLIC "-//W3C//DTD SVG 20010904//EN"
 "http://www.w3.org/TR/2001/REC-SVG-20010904/DTD/svg10.dtd">
<svg version="1.0" xmlns="http://www.w3.org/2000/svg"
 width="300.000000pt" height="250.000000pt" viewBox="0 0 300.000000 250.000000"
 preserveAspectRatio="xMidYMid meet">
<metadata>
Created by potrace 1.16, written by Peter Selinger 2001-2019
</metadata>
<g transform="translate(0.000000,250.000000) scale(0.100000,-0.100000)"
fill="#000000" stroke="none">
<path d="M0 1866 l0 -634 83 48 c45 27 120 73 167 103 47 30 150 89 230 132
254 134 438 254 424 276 -3 5 -1 9 5 9 6 0 8 6 5 14 -3 8 0 17 6 21 8 5 5 11
-7 21 -17 13 -17 13 1 14 11 0 16 3 13 7 -4 3 -2 12 4 19 8 10 6 19 -5 36 -9
13 -21 40 -27 60 -13 49 1 74 43 83 52 10 68 16 67 23 -4 30 18 50 77 71 35
12 66 27 70 32 3 5 16 9 30 9 13 0 32 4 42 9 70 34 190 69 216 62 4 -1 14 6
21 16 10 14 16 15 27 5 8 -6 17 -9 21 -6 3 3 37 7 76 9 51 3 74 0 85 -10 7 -8
16 -11 19 -8 3 3 9 -6 13 -21 3 -14 12 -26 20 -26 8 0 14 -7 14 -16 0 -8 4
-13 9 -10 4 3 14 -13 21 -34 12 -36 40 -74 40 -55 0 4 11 0 25 -9 14 -9 25
-14 25 -10 0 4 7 1 15 -6 8 -6 19 -9 24 -6 5 4 12 2 16 -4 13 -21 42 -8 99 48
l60 57 -47 -57 c-26 -31 -47 -58 -47 -61 0 -2 11 -3 25 -2 17 2 23 -1 18 -8
-19 -30 -3 -77 26 -77 6 0 11 -5 11 -11 0 -5 -5 -7 -11 -3 -8 4 -8 0 0 -15 7
-11 22 -21 34 -22 21 0 21 -1 2 -8 -18 -7 -17 -10 15 -30 28 -16 31 -21 15
-22 l-20 0 20 -9 c18 -8 18 -9 2 -9 -30 -1 -10 -18 35 -29 24 -6 52 -18 63
-27 20 -15 20 -15 1 -30 -15 -12 -22 -12 -27 -3 -5 7 -11 9 -15 5 -4 -4 -13
-2 -21 4 -9 8 -13 8 -13 1 0 -6 -10 -14 -22 -18 -23 -7 -86 -64 -71 -64 4 0 1
-5 -7 -11 -12 -8 -12 -12 -2 -16 10 -4 10 -8 1 -19 -15 -19 -25 -18 -48 5 -14
14 -16 22 -7 31 8 8 6 9 -8 4 -16 -6 -18 -4 -13 12 7 18 6 18 -6 2 -16 -21
-27 -14 -20 12 3 12 11 17 21 13 10 -4 6 3 -8 15 -14 12 -18 20 -9 17 17 -6
18 -3 23 62 4 38 2 41 -20 38 -14 -1 -27 -5 -31 -8 -3 -4 -14 -2 -24 4 -15 8
-19 6 -19 -8 0 -14 -2 -15 -9 -5 -7 11 -9 11 -14 -2 -4 -9 4 -24 21 -37 20
-16 22 -20 7 -15 -11 4 -31 10 -45 12 -20 4 -23 3 -12 -7 6 -7 12 -19 12 -27
0 -8 9 -25 20 -39 11 -14 20 -22 20 -18 0 4 8 1 17 -6 14 -12 16 -12 9 0 -14
22 8 9 50 -30 44 -39 76 -77 57 -65 -7 4 -23 9 -34 11 -12 3 -29 11 -38 18
-30 26 -47 31 -27 9 20 -23 9 -31 -12 -10 -7 7 -12 8 -12 4 0 -5 -7 -3 -15 4
-8 7 -15 9 -15 5 0 -4 -7 -1 -17 6 -15 13 -16 10 -9 -31 18 -100 17 -108 -8
-62 -11 20 -15 22 -16 9 0 -10 -4 -16 -9 -13 -5 4 -7 -12 -4 -35 l6 -41 -29
15 c-23 12 -31 27 -46 83 l-17 69 5 -85 c5 -82 24 -159 48 -190 6 -8 22 -35
35 -60 13 -25 34 -56 46 -70 25 -28 36 -52 41 -94 5 -36 -5 -54 -20 -34 -6 8
-22 18 -36 22 -24 7 -24 7 5 -18 17 -14 33 -25 38 -26 4 0 7 -5 7 -11 0 -6 -9
-8 -20 -4 -11 4 -20 2 -20 -4 0 -6 5 -11 10 -11 6 0 10 -12 10 -27 0 -16 7
-37 15 -47 8 -11 13 -28 9 -38 -4 -12 0 -18 11 -18 10 0 13 -5 9 -12 -5 -7 -2
-9 8 -6 20 8 75 -27 56 -36 -10 -5 -10 -7 0 -12 6 -3 12 -12 12 -20 0 -9 5
-12 10 -9 8 5 8 11 0 20 -7 8 -7 16 -2 19 6 3 12 0 15 -8 3 -7 14 -16 26 -19
18 -4 19 -1 14 24 -4 23 0 34 17 49 13 11 29 20 36 20 28 0 25 75 -7 161 -6
16 -6 34 0 50 10 24 10 24 12 -6 1 -19 3 -23 6 -12 5 18 5 18 19 0 13 -17 13
-17 14 5 0 15 -17 40 -45 69 -25 24 -45 50 -45 56 0 7 -4 6 -10 -3 -9 -13 -11
-13 -20 0 -9 13 -11 13 -19 0 -8 -12 -13 -11 -30 9 -22 25 -29 81 -11 81 6 0
10 -6 10 -14 0 -7 7 -19 15 -26 13 -10 15 -9 15 12 0 13 -5 29 -12 36 -7 7 -9
12 -4 12 4 0 18 -13 32 -29 16 -19 38 -32 64 -36 28 -5 37 -11 33 -21 -3 -8 0
-14 7 -14 6 0 8 5 4 12 -5 8 -2 9 11 4 14 -5 16 -4 7 7 -9 10 -8 17 0 25 9 9
7 12 -9 12 -26 0 -47 25 -39 46 4 9 1 23 -5 31 -7 7 -9 16 -6 19 3 3 13 -9 22
-26 12 -23 13 -30 3 -25 -10 6 -10 5 -1 -5 10 -11 15 -11 29 1 10 8 15 9 12 3
-4 -5 6 -15 23 -21 35 -13 52 3 17 16 -13 6 -17 10 -10 10 10 1 10 5 -2 17 -9
8 -16 21 -16 27 0 7 -4 6 -10 -3 -7 -11 -11 -9 -19 13 -6 15 -16 27 -22 27 -8
0 -8 4 1 15 13 16 6 35 -14 35 -15 0 -46 32 -45 46 0 5 13 19 29 32 25 19 43
24 105 25 76 1 79 3 78 44 -1 8 7 11 21 7 15 -3 29 3 46 20 13 15 29 26 36 26
7 0 16 9 19 20 9 28 27 25 19 -4 -8 -32 11 -42 42 -21 14 9 31 14 37 11 9 -3
9 -5 0 -5 -7 -1 -13 -6 -13 -12 0 -5 4 -8 9 -5 5 3 12 -17 15 -45 5 -39 12
-52 26 -56 27 -7 25 -23 -2 -23 -17 0 -19 -3 -9 -9 11 -7 11 -15 2 -42 -12
-36 -58 -89 -76 -89 -6 0 -18 -11 -25 -25 -7 -13 -23 -28 -34 -31 -24 -7 -56
-38 -56 -53 0 -6 -7 -8 -15 -5 -11 5 -13 2 -8 -11 4 -12 0 -23 -12 -31 -16
-12 -16 -14 0 -30 16 -16 15 -18 -10 -38 -24 -19 -27 -27 -23 -64 4 -26 2 -39
-5 -35 -6 4 -7 -11 -2 -43 11 -72 12 -97 2 -116 -4 -11 -3 -27 4 -40 6 -13 8
-20 4 -16 -12 11 -36 -28 -29 -45 6 -16 -28 -42 -40 -30 -6 6 -10 -12 -7 -35
1 -6 -2 -12 -7 -12 -17 0 -21 -43 -6 -71 16 -31 19 -53 4 -29 -5 8 -12 11 -16
7 -4 -4 -2 -13 4 -19 7 -7 12 -15 12 -18 0 -12 -40 -4 -53 10 -10 12 -9 12 6
1 12 -9 17 -10 17 -2 0 16 -58 72 -65 61 -3 -4 -14 -6 -24 -3 -10 3 -22 0 -25
-6 -16 -26 -90 -2 -123 39 -9 10 -12 11 -13 3 0 -7 -5 -13 -11 -13 -5 0 -7 5
-4 10 3 6 0 10 -9 10 -8 0 -24 16 -37 36 -16 27 -24 32 -30 22 -7 -10 -9 -10
-9 0 0 6 -7 12 -16 12 -10 0 -14 -5 -10 -15 4 -12 2 -13 -13 -6 -30 16 -47 41
-33 50 17 10 -33 52 -53 45 -8 -4 -15 -10 -15 -14 0 -10 69 -80 79 -80 5 0 8
-14 9 -31 1 -29 0 -30 -13 -13 -8 11 -15 24 -15 30 0 7 -7 15 -16 18 -8 3 -12
11 -8 17 4 7 1 10 -7 7 -8 -3 -24 4 -36 15 -19 17 -23 18 -23 4 0 -9 5 -19 10
-22 6 -3 10 -17 10 -31 0 -17 4 -23 12 -18 7 5 9 2 5 -8 -3 -10 3 -19 19 -27
16 -7 24 -19 24 -36 l0 -26 -26 28 c-20 22 -23 23 -15 6 20 -39 -8 -70 -37
-41 -10 10 -14 8 -19 -10 -4 -17 -9 -20 -18 -12 -9 8 -15 8 -20 0 -3 -5 -4
-10 -1 -10 3 0 -5 -10 -17 -23 -12 -13 -26 -21 -31 -19 -5 3 -7 -2 -3 -11 6
-16 -8 -23 -35 -18 -5 0 -8 -4 -8 -10 0 -8 -5 -8 -15 1 -10 9 -15 9 -15 1 0
-6 -9 -11 -20 -11 -11 0 -20 -4 -20 -10 0 -5 -4 -10 -9 -10 -17 0 -5 33 15 42
14 6 12 7 -8 3 -16 -3 -28 -2 -28 3 0 13 -34 11 -42 -2 -14 -20 -9 -56 7 -56
19 0 19 -34 0 -50 -8 -7 -12 -17 -8 -23 4 -6 0 -8 -11 -4 -10 4 -19 1 -23 -9
-4 -12 -8 -13 -14 -3 -9 15 -37 21 -44 9 -6 -9 -62 16 -83 37 -7 7 -21 13 -30
13 -14 1 -12 5 8 23 24 21 30 57 9 57 -6 0 -7 5 -3 11 3 6 0 15 -7 20 -11 7
-10 11 6 23 11 9 14 16 8 16 -25 0 -13 18 16 25 34 7 46 28 25 45 -21 18 -17
25 16 26 36 1 35 1 44 37 4 18 3 26 -3 22 -6 -3 -4 10 5 30 8 20 12 40 9 44
-10 17 79 103 139 133 63 32 125 43 138 24 5 -7 8 -7 8 2 0 10 5 10 21 1 15
-8 19 -8 15 0 -4 6 -3 11 2 11 12 0 52 -39 52 -50 0 -6 7 -10 15 -10 8 0 15
-5 15 -11 0 -6 -7 -8 -16 -5 -12 4 -11 -1 5 -23 11 -15 17 -32 13 -36 -4 -5
-1 -5 6 -1 7 4 19 3 27 -4 9 -7 15 -8 20 0 3 5 1 10 -5 10 -6 0 -8 5 -5 10 4
6 1 9 -7 8 -7 -2 -12 3 -10 10 1 8 -2 11 -7 8 -5 -4 -12 -2 -15 3 -10 16 12
23 34 11 16 -8 18 -8 14 4 -3 9 -9 15 -12 14 -14 -4 -52 14 -52 23 0 6 5 7 10
4 15 -10 12 3 -7 25 -10 11 -18 24 -19 28 0 4 -8 24 -17 44 -21 45 -21 52 -3
45 23 -9 27 5 9 32 -15 24 -15 25 0 12 15 -12 17 -11 17 3 0 9 -4 16 -10 16
-5 0 -10 4 -10 10 0 5 6 7 13 4 9 -3 13 2 12 13 0 10 -4 18 -9 18 -4 0 -16 19
-27 43 -21 44 -20 80 7 276 6 39 5 47 -6 41 -10 -6 -12 -3 -7 14 4 18 3 20 -9
10 -8 -7 -27 -9 -46 -5 -34 7 -88 -8 -128 -35 -18 -12 -31 -14 -43 -8 -13 8
-10 0 8 -27 46 -67 42 -106 -12 -141 -30 -20 -153 -138 -153 -147 0 -4 -11
-19 -25 -34 -14 -15 -25 -35 -25 -44 0 -10 -4 -18 -9 -18 -5 0 -14 -14 -20
-32 -6 -17 -14 -28 -18 -25 -3 4 -14 0 -24 -9 -16 -14 -18 -14 -24 5 -3 12
-11 21 -16 21 -5 0 -9 6 -9 14 0 8 -6 16 -12 19 -9 2 -13 26 -12 75 1 60 7 81
38 144 21 40 50 89 65 108 55 70 52 74 -19 21 -19 -14 -38 -26 -42 -26 -9 0
-41 -44 -46 -62 -1 -7 -5 -26 -9 -43 -3 -17 -10 -33 -17 -37 -18 -12 -36 -12
-36 -1 0 6 -6 5 -15 -2 -8 -7 -15 -9 -15 -6 0 4 -7 0 -16 -8 -8 -9 -14 -26
-12 -38 2 -17 -2 -23 -14 -22 -10 1 -18 -2 -18 -6 0 -5 -20 -18 -43 -29 -24
-12 -52 -29 -63 -39 -18 -18 -20 -17 -54 6 -36 24 -57 69 -40 86 6 6 10 16 10
23 0 8 16 27 35 44 30 27 33 33 23 52 -10 20 -10 21 6 8 14 -12 16 -12 10 3
-8 20 -11 20 -48 1 -16 -9 -31 -13 -34 -10 -3 3 -10 -5 -17 -18 -6 -12 -17
-21 -24 -19 -15 3 -48 -31 -56 -59 -4 -11 -10 -19 -14 -19 -13 0 -54 -35 -114
-97 -33 -35 -63 -63 -68 -63 -4 0 -25 -11 -45 -25 -45 -30 -68 -31 -118 -4
-21 11 -36 17 -34 12 2 -4 10 -20 17 -35 13 -25 12 -30 -4 -49 -13 -14 -26
-18 -42 -14 -13 3 -23 1 -23 -5 0 -5 -6 -10 -14 -10 -8 0 -17 -4 -20 -9 -8
-12 176 -111 207 -111 43 0 215 59 302 103 59 30 105 65 174 131 51 50 106
110 121 133 15 23 30 40 34 36 3 -3 6 -29 6 -57 1 -28 4 -69 9 -92 4 -22 4
-51 -1 -63 -5 -15 -3 -32 7 -52 9 -17 11 -29 5 -29 -5 0 -10 3 -10 8 0 4 -8
17 -18 30 -18 23 -18 22 -17 -42 0 -46 -4 -67 -13 -71 -21 -8 -24 -6 -16 8 4
6 4 9 -1 5 -12 -11 -42 9 -48 32 -3 13 0 23 9 27 16 6 19 29 4 38 -5 3 -7 0
-5 -8 4 -8 -5 -19 -21 -27 -14 -8 -30 -25 -35 -39 -9 -23 -10 -23 -24 -5 -8
10 -15 15 -16 9 -5 -46 -12 -71 -22 -77 -9 -6 -8 -8 2 -8 9 0 12 -9 9 -29 -2
-17 -1 -28 4 -25 4 3 8 0 8 -5 0 -21 -39 -11 -59 15 -24 31 -28 12 -6 -30 19
-36 19 -37 -2 -29 -15 5 -16 4 -7 -8 13 -16 15 -51 2 -43 -5 3 -6 9 -3 14 9
15 -10 18 -23 4 -8 -9 -9 -14 -2 -14 6 0 8 -5 5 -10 -4 -6 -10 -8 -14 -5 -5 2
-6 -7 -3 -20 2 -15 0 -25 -7 -25 -7 0 -17 -5 -24 -10 -7 -6 -27 -24 -46 -40
-19 -17 -38 -30 -43 -30 -4 0 -8 -7 -8 -15 0 -11 -11 -15 -37 -16 -21 0 -32
-3 -26 -6 9 -3 10 -10 3 -24 -8 -13 -22 -19 -48 -19 l-37 -1 25 -14 25 -14
-30 -2 c-16 -2 -39 -4 -50 -5 -11 -1 -30 -2 -43 -3 -13 -1 -21 -5 -17 -11 3
-5 12 -7 20 -4 7 3 22 1 32 -5 15 -9 12 -10 -19 -11 -20 0 -40 -5 -44 -11 -5
-9 1 -10 20 -5 15 4 26 2 26 -4 0 -5 -11 -10 -23 -10 -38 0 -41 -14 -6 -25 18
-6 35 -17 37 -23 4 -12 -31 -16 -110 -13 -21 1 -38 -3 -38 -9 0 -5 9 -10 19
-10 33 0 33 -17 -1 -42 -18 -12 -37 -23 -43 -24 -5 0 -21 -2 -35 -3 -23 -2
-21 -4 15 -22 22 -10 39 -23 38 -28 -2 -6 5 -8 15 -5 12 4 11 0 -6 -15 -13
-11 -23 -24 -22 -28 0 -4 -10 -9 -22 -11 -30 -4 -71 -24 -81 -39 -4 -7 -16
-13 -25 -13 -15 0 -15 -2 -2 -10 12 -8 13 -12 1 -19 -10 -6 -5 -12 18 -22 17
-8 31 -18 31 -22 0 -5 -4 -6 -9 -2 -6 3 -13 -1 -18 -8 -4 -8 -15 -17 -23 -20
-8 -3 661 -6 1488 -6 l1502 -1 0 1073 c-1 733 -4 1066 -11 1055 -5 -10 -16
-18 -23 -18 -7 0 -110 48 -228 108 -118 59 -252 124 -299 145 -46 21 -95 45
-109 53 -14 8 -37 19 -52 26 -16 7 -28 16 -28 20 0 12 13 10 35 -6 11 -7 31
-17 45 -21 14 -4 47 -18 74 -31 28 -13 56 -24 64 -24 8 0 26 -6 40 -14 15 -8
59 -27 97 -44 39 -17 90 -39 115 -50 152 -67 196 -82 236 -82 l44 0 0 155 0
155 -407 -1 c-305 -1 -401 -4 -380 -12 15 -6 27 -14 27 -18 0 -10 -58 10 -66
22 -3 5 -456 9 -1090 9 l-1084 0 0 -634z"/>
<path d="M1453 2005 c-34 -14 -68 -67 -59 -91 4 -9 21 -14 54 -14 40 0 57 6
88 31 22 17 38 36 36 43 -10 36 -71 52 -119 31z"/>
</g>
</svg>
